<svg width="288" height="73" viewBox="0 0 288 73" fill="none" xmlns="http://www.w3.org/2000/svg">
<g clip-path="url(#clip0_96_5)">
<path d="M41.8462 10C34.5691 10 27.9848 12.9675 23.216 17.7611C18.4502 22.5577 15.5 29.1804 15.5 36.5C15.5 51.1361 27.295 63 41.8462 63C56.3974 63 68.1924 51.1361 68.1924 36.5C68.1924 21.8639 56.3974 10 41.8462 10ZM41.8462 39.5486C40.174 39.5486 38.8153 38.185 38.8153 36.5C38.8153 35.659 39.1557 34.8961 39.7022 34.3465C40.2516 33.7938 41.0101 33.4544 41.8462 33.4544C43.5184 33.4544 44.8771 34.818 44.8771 36.503C44.8771 38.188 43.5184 39.5516 41.8462 39.5516V39.5486Z" fill="#000E1B"/>
<path d="M268.917 22.6928C265.76 20.3651 262.521 17.4968 260.215 14.0187L258.197 10.9731C257.77 10.3274 256.972 10.0421 256.232 10.2643C255.494 10.4896 254.99 11.1744 254.99 11.9493V39.5846C253.956 38.9779 252.768 38.6055 251.487 38.6055C247.623 38.6055 244.482 41.7652 244.482 45.6517C244.482 49.5383 247.623 52.698 251.487 52.698C255.351 52.698 258.492 49.5383 258.492 45.6517V17.734C260.968 20.8787 264.061 23.4798 266.847 25.5342C268.215 26.5434 269 28.0962 269 29.7992C269 32.7126 266.644 35.0823 263.748 35.0823C262.78 35.0823 261.998 35.8693 261.998 36.8424C261.998 37.8155 262.78 38.6025 263.748 38.6025C268.576 38.6025 272.503 34.6528 272.503 29.7962C272.503 26.9999 271.165 24.3448 268.92 22.6898L268.917 22.6928Z" fill="#E5A265"/>
<path d="M237.769 14.0127L213.02 21.0589C212.268 21.2752 211.748 21.966 211.748 22.7529V46.6309C210.715 46.0241 209.527 45.6517 208.246 45.6517C204.382 45.6517 201.24 48.8114 201.24 52.698C201.24 56.5845 204.382 59.7442 208.246 59.7442C212.11 59.7442 215.251 56.5845 215.251 52.698V39.5696L236.497 33.914V39.5846C235.464 38.9779 234.275 38.6055 232.994 38.6055C229.13 38.6055 225.989 41.7652 225.989 45.6517C225.989 49.5383 229.13 52.698 232.994 52.698C236.858 52.698 240 49.5383 240 45.6517V15.7067C240 14.5413 238.892 13.6943 237.769 14.0127ZM215.254 35.9263V31.1297L236.5 25.0897V30.2707L215.254 35.9263Z" fill="#E5A265"/>
<path d="M109.687 58.0322H100.4V52.2684C98.292 56.7076 94.6042 58.762 89.928 58.762C82.2896 58.762 77.282 53.596 77.282 44.5194V24.3778H86.5687V43.0597C86.5687 47.7632 88.8083 50.6796 92.4961 50.6796C97.1723 50.6796 100.4 47.4328 100.4 41.4708V24.3778H109.687V58.0322Z" fill="black"/>
<path d="M142.489 23.8462V33.7157C131.754 32.5894 128.066 36.4309 128.066 45.3754V58.0292H118.78V24.3778H128.066V33.2562C130.24 26.5644 135.113 23.8492 142.489 23.8492V23.8462Z" fill="black"/>
<path d="M180.424 58.0322H171.138V52.2684C169.029 56.7076 165.342 58.762 160.665 58.762C153.027 58.762 148.019 53.596 148.019 44.5194V24.3778H157.306V43.0597C157.306 47.7632 159.546 50.6796 163.233 50.6796C167.91 50.6796 171.138 47.4328 171.138 41.4708V24.3778H180.424V58.0322Z" fill="black"/>
<path d="M193.796 47.8292C196.597 47.8292 198.866 50.1119 198.866 52.9292C198.866 55.7465 196.597 58.0292 193.796 58.0292C190.995 58.0292 188.726 55.7465 188.726 52.9292C188.726 50.1119 190.995 47.8292 193.796 47.8292Z" fill="black"/>
<path d="M41.8462 26.9789C36.6176 26.9789 32.3803 31.2409 32.3803 36.5C32.3803 41.7592 36.6205 46.0212 41.8462 46.0212C47.0718 46.0212 51.3121 41.7592 51.3121 36.5C51.3121 31.2409 47.0748 26.9789 41.8462 26.9789ZM41.8462 39.5486C40.174 39.5486 38.8153 38.185 38.8153 36.5C38.8153 34.815 40.174 33.4515 41.8462 33.4515C43.5184 33.4515 44.8771 34.815 44.8771 36.5C44.8771 38.185 43.5214 39.5486 41.8462 39.5486Z" fill="#EF9C16"/>
<path d="M45.2503 34.4606C45.4803 34.6919 45.7968 34.8331 46.1462 34.8331H58.9535C59.058 34.8331 59.1356 34.7369 59.1207 34.6348C59.0789 34.3615 58.9505 34.1182 58.7653 33.932C58.5354 33.7007 58.2189 33.5596 57.8695 33.5596H44.8801C44.8801 33.911 45.0234 34.2324 45.2503 34.4636V34.4606Z" fill="white"/>
<path d="M58.9146 36.1937C58.6847 35.9624 58.3652 35.8182 58.0128 35.8182H44.8771C44.8771 36.5271 45.4474 37.1007 46.1521 37.1007H59.1267C59.2162 37.1007 59.2879 37.0226 59.276 36.9355C59.2401 36.6472 59.1058 36.3889 58.9146 36.1937Z" fill="white"/>
<path d="M58.9325 38.0979L56.5078 38.0889H44.8771V38.4313C44.8771 38.9449 45.2891 39.3594 45.7998 39.3594H49.8787C48.6813 42.7714 45.4205 45.1171 41.7984 45.1171C36.0771 45.1171 31.6487 39.4495 33.7718 33.4034C34.4556 31.4541 36.5907 29.2375 38.5137 28.5017C41.9059 27.2071 45.4265 28.0001 47.8094 30.3578C47.9438 30.49 48.1588 30.49 48.2902 30.3548L48.6992 29.9373C48.8306 29.8022 48.8276 29.5859 48.6933 29.4538C47.7676 28.5377 46.6926 27.8289 45.525 27.3483C44.3575 26.8677 43.0944 26.6155 41.7984 26.6155C39.1886 26.6155 36.7251 27.6487 34.8588 29.5259C32.9925 31.4031 31.9653 33.881 31.9653 36.506C31.9653 39.1311 32.9925 41.609 34.8588 43.4862C36.7251 45.3634 39.1886 46.3966 41.7984 46.3966C44.4082 46.3966 46.8718 45.3634 48.7381 43.4862C49.8907 42.3268 50.7417 40.9062 51.2076 39.3654H52.6737C51.3927 44.2851 46.8867 47.8113 41.7984 47.8113C35.5993 47.8113 30.5558 42.7383 30.5558 36.503C30.5558 29.4778 36.961 23.9273 44.2082 25.4501C46.2656 25.8826 48.1498 26.9248 49.6458 28.4086C49.7981 28.5617 50.046 28.5587 50.1953 28.4055L50.5715 28.0211C50.7029 27.8859 50.7029 27.6697 50.5685 27.5375C49.9862 26.9609 49.3562 26.4503 48.6843 26.0027C48.0095 25.5552 47.2928 25.1738 46.5373 24.8644C45.0264 24.2427 43.4318 23.9273 41.7984 23.9273C38.4779 23.9273 35.3425 25.2428 32.9716 27.6276C30.5976 30.0154 29.2927 33.1661 29.2927 36.506C29.2927 39.8459 30.6006 42.9966 32.9716 45.3844C35.3425 47.7722 38.4779 49.0847 41.7984 49.0847C45.1189 49.0847 48.2513 47.7692 50.6253 45.3844C52.2915 43.7085 53.4471 41.633 53.9757 39.3684H55.0238C53.692 45.6187 48.1976 50.1119 41.8014 50.1119C33.1955 50.1119 26.441 41.9874 28.7224 32.9619C29.8899 28.3485 33.4225 24.6902 37.9882 23.4257C42.9033 22.0651 47.8482 23.4017 51.2882 26.8077C51.4226 26.9398 51.6376 26.9368 51.7689 26.8047L52.178 26.3872C52.3094 26.252 52.3094 26.0358 52.175 25.9036C51.4853 25.2218 50.7417 24.6151 49.9444 24.0865C49.1472 23.5579 48.2991 23.1074 47.4063 22.7409C45.6176 22.0051 43.7334 21.6326 41.8014 21.6326C39.8694 21.6326 37.8866 22.0291 36.0651 22.81C34.3063 23.5639 32.7237 24.6391 31.365 26.0087C30.0034 27.3783 28.9314 28.9702 28.1849 30.7393C27.4085 32.5744 27.0143 34.5147 27.0143 36.509C27.0143 38.5034 27.4085 40.4466 28.1849 42.2788C28.9344 44.0478 30.0034 45.6397 31.365 47.0093C32.7267 48.3789 34.3093 49.4572 36.0651 50.2081C37.8896 50.989 39.8186 51.3854 41.8014 51.3854C43.7842 51.3854 45.7162 50.989 47.5377 50.2081C49.2965 49.4542 50.8791 48.3789 52.2407 47.0093C53.6024 45.6397 54.6714 44.0478 55.4209 42.2788C55.8181 41.3387 56.1167 40.3625 56.3137 39.3684H57.5828C55.9733 48.3759 47.1166 54.4941 37.7105 52.1093C32.0996 50.6886 27.6981 46.2765 26.2977 40.6299C23.652 29.9704 31.6398 20.3892 41.8104 20.3892C46.0416 20.3892 50.034 22.0321 53.05 25.0176C53.1843 25.1497 53.3993 25.1497 53.5307 25.0146L54.0145 24.519C54.1459 24.3838 54.1459 24.1676 54.0115 24.0354C53.2023 23.2335 52.3243 22.5217 51.3867 21.8999C50.4491 21.2782 49.4517 20.7496 48.4006 20.3171C46.2984 19.4521 44.0798 19.0106 41.8074 19.0106C39.535 19.0106 37.2058 19.4761 35.0618 20.3952C32.9954 21.2812 31.1321 22.5457 29.5316 24.1586C27.9311 25.7685 26.6709 27.6397 25.79 29.7211C24.8763 31.8776 24.4135 34.1603 24.4135 36.506C24.4135 38.8518 24.8763 41.1344 25.79 43.294C26.6709 45.3724 27.9311 47.2466 29.5316 48.8565C31.1321 50.4694 32.9954 51.7338 35.0618 52.6199C37.2058 53.5389 39.4752 54.0045 41.8074 54.0045C44.1395 54.0045 46.4089 53.5389 48.5559 52.6199C50.6223 51.7338 52.4856 50.4694 54.0861 48.8565C55.6867 47.2466 56.9468 45.3754 57.8277 43.294C58.3413 42.0835 58.7146 40.8191 58.9415 39.5396C58.9654 39.3984 58.9893 39.2512 59.0102 39.1071V39.083C59.0281 38.9989 59.0371 38.9269 59.046 38.8638C59.046 38.8518 59.049 38.8428 59.049 38.8307L59.1028 38.4433L59.1177 38.3081C59.1296 38.197 59.043 38.1039 58.9325 38.1039V38.0979Z" fill="white"/>
<path d="M62.8174 26.4772C62.8174 26.5583 62.7577 26.6064 62.6562 26.6124C62.3845 26.6304 62.1157 26.6725 61.8619 26.7716C61.0736 27.0689 60.6346 27.6516 60.4973 28.4776C60.4704 28.6488 60.4614 28.82 60.4584 28.9942C60.4584 29.1083 60.4077 29.1624 60.3241 29.1684C60.2285 29.1714 60.1777 29.1173 60.1748 29.0062C60.1658 28.7028 60.1359 28.4025 60.0463 28.1111C59.8104 27.3603 59.2998 26.9067 58.5563 26.7025C58.3652 26.6484 58.1681 26.6244 57.968 26.6124C57.8576 26.6064 57.7948 26.5553 57.7978 26.4652C57.7978 26.3811 57.8695 26.3241 57.971 26.318C58.4876 26.291 58.9624 26.1468 59.3745 25.8195C59.7836 25.4951 60.0045 25.0596 60.1031 24.552C60.1419 24.3568 60.1628 24.1585 60.1598 23.9573C60.1598 23.9122 60.1598 23.8672 60.1867 23.8311C60.2255 23.7741 60.2823 23.75 60.3479 23.7711C60.4166 23.7921 60.4495 23.8462 60.4495 23.9182C60.4495 24.1105 60.4644 24.2997 60.4973 24.4859C60.6675 25.4741 61.3184 26.1198 62.3068 26.282C62.4233 26.3 62.5367 26.315 62.6532 26.3211C62.7517 26.3241 62.8204 26.3931 62.8204 26.4772H62.8174Z" fill="white"/>
<path d="M56.1137 26.6064C56.1973 26.6064 56.2541 26.6695 56.257 26.7716C56.26 26.9458 56.2809 27.117 56.3377 27.2822C56.49 27.7327 56.8244 27.961 57.2723 28.0451C57.332 28.0571 57.3947 28.0601 57.4545 28.0631C57.544 28.0721 57.6008 28.1262 57.6038 28.2043C57.6038 28.2884 57.547 28.3484 57.4545 28.3544C57.2574 28.3664 57.0663 28.4025 56.8901 28.4926C56.484 28.6968 56.3018 29.0422 56.26 29.4807C56.2541 29.5498 56.2541 29.6219 56.2451 29.691C56.2391 29.7511 56.2123 29.7991 56.1436 29.8021C56.0689 29.8021 56.0122 29.7781 55.9883 29.703C55.9674 29.6399 55.9764 29.5739 55.9734 29.5108C55.9584 29.2915 55.9077 29.0813 55.7912 28.8921C55.5792 28.5497 55.2597 28.3965 54.8745 28.3544C54.8327 28.3514 54.7939 28.3514 54.7521 28.3424C54.6744 28.3244 54.6296 28.2763 54.6356 28.1922C54.6386 28.1172 54.6923 28.0691 54.7759 28.0661C54.9432 28.0541 55.1044 28.027 55.2597 27.961C55.6598 27.7958 55.8748 27.4864 55.9525 27.0659C55.9704 26.9668 55.9704 26.8677 55.9764 26.7686C55.9823 26.6755 56.042 26.6094 56.1197 26.6064H56.1137Z" fill="white"/>
<path d="M57.2872 25.2038C57.1947 25.2038 57.1439 25.1497 57.1409 25.0446C57.1379 24.9004 57.123 24.7592 57.0872 24.6181C56.9498 24.0805 56.5258 23.7951 56.0092 23.7561C55.9853 23.7561 55.9614 23.7561 55.9405 23.7531C55.8509 23.7411 55.7942 23.681 55.7972 23.6059C55.7972 23.5278 55.8569 23.4707 55.9495 23.4677C56.0958 23.4617 56.2391 23.4317 56.3765 23.3836C56.7826 23.2365 57.0185 22.9391 57.1051 22.5216C57.129 22.4105 57.1409 22.2964 57.1439 22.1822C57.1439 22.0771 57.2006 22.014 57.2842 22.014C57.3589 22.014 57.4216 22.0741 57.4276 22.1732C57.4365 22.2994 57.4395 22.4255 57.4664 22.5487C57.5679 23.0322 57.9471 23.3866 58.4369 23.4497C58.4996 23.4587 58.5653 23.4617 58.628 23.4677C58.7176 23.4767 58.7713 23.5308 58.7713 23.6149C58.7713 23.702 58.7205 23.7531 58.631 23.7591C58.3682 23.7771 58.1174 23.8372 57.8994 23.9934C57.6187 24.1976 57.4783 24.4829 57.4365 24.8193C57.4276 24.9034 57.4246 24.9875 57.4156 25.0746C57.4067 25.1587 57.3619 25.2068 57.2902 25.2068L57.2872 25.2038Z" fill="white"/>
<g opacity="0.6">
<g opacity="0.4">
<path d="M41.8462 61.8887C27.9281 61.8887 16.6049 50.4994 16.6049 36.5C16.6049 22.5007 27.9281 11.1113 41.8462 11.1113C55.7643 11.1113 67.0875 22.5007 67.0875 36.5C67.0875 50.4994 55.7643 61.8887 41.8462 61.8887ZM41.8462 12.0124C28.4238 12.0124 17.5037 22.9992 17.5037 36.5C17.5037 50.0008 28.4238 60.9877 41.8492 60.9877C55.2746 60.9877 66.1947 50.0038 66.1947 36.5C66.1947 22.9962 55.2716 12.0124 41.8462 12.0124Z" fill="white"/>
</g>
<g opacity="0.37">
<path d="M41.8462 59.7893C29.0807 59.7893 18.6951 49.3431 18.6951 36.5C18.6951 23.657 29.0807 13.2138 41.8462 13.2138C54.6117 13.2138 65.0003 23.66 65.0003 36.5C65.0003 49.3401 54.6147 59.7893 41.8462 59.7893ZM41.8462 14.1149C29.5734 14.1149 19.591 24.1556 19.591 36.5C19.591 48.8445 29.5764 58.8882 41.8462 58.8882C54.116 58.8882 64.1045 48.8445 64.1045 36.5C64.1045 24.1556 54.119 14.1149 41.8462 14.1149Z" fill="white"/>
</g>
<g opacity="0.33">
<path d="M41.8462 57.6898C30.2304 57.6898 20.7824 48.1837 20.7824 36.503C20.7824 24.8224 30.2334 15.3132 41.8462 15.3132C53.4591 15.3132 62.91 24.8194 62.91 36.5C62.91 48.1807 53.4591 57.6868 41.8462 57.6868V57.6898ZM41.8462 16.2143C30.7261 16.2143 21.6782 25.3149 21.6782 36.5C21.6782 47.6851 30.7261 56.7857 41.8462 56.7857C52.9664 56.7857 62.0142 47.6851 62.0142 36.5C62.0142 25.3149 52.9694 16.2143 41.8462 16.2143Z" fill="white"/>
</g>
<g opacity="0.3">
<path d="M41.8462 55.5874C31.3829 55.5874 22.8696 47.0244 22.8696 36.5C22.8696 25.9757 31.3829 17.4127 41.8462 17.4127C52.3094 17.4127 60.8227 25.9757 60.8227 36.5C60.8227 47.0244 52.3094 55.5874 41.8462 55.5874ZM41.8462 18.3138C31.8756 18.3138 23.7655 26.4713 23.7655 36.5C23.7655 46.5288 31.8756 54.6863 41.8462 54.6863C51.8167 54.6863 59.9269 46.5288 59.9269 36.5C59.9269 26.4713 51.8167 18.3138 41.8462 18.3138Z" fill="white"/>
</g>
<g opacity="0.27">
<path d="M41.8462 53.4879C32.5326 53.4879 24.9569 45.868 24.9569 36.5C24.9569 27.1321 32.5326 19.5121 41.8462 19.5121C51.1598 19.5121 58.7355 27.1321 58.7355 36.5C58.7355 45.868 51.1598 53.4879 41.8462 53.4879ZM41.8462 20.4132C33.0283 20.4132 25.8527 27.6306 25.8527 36.5C25.8527 45.3694 33.0283 52.5868 41.8462 52.5868C50.6641 52.5868 57.8396 45.3694 57.8396 36.5C57.8396 27.6306 50.6641 20.4132 41.8462 20.4132Z" fill="white"/>
</g>
<g opacity="0.23">
<path d="M41.8462 51.3885C33.6852 51.3885 27.0442 44.7087 27.0442 36.5C27.0442 28.2914 33.6852 21.6116 41.8462 21.6116C50.0072 21.6116 56.6482 28.2914 56.6482 36.5C56.6482 44.7087 50.0072 51.3885 41.8462 51.3885ZM41.8462 22.5127C34.1779 22.5127 27.94 28.787 27.94 36.5C27.94 44.2131 34.1779 50.4874 41.8462 50.4874C49.5144 50.4874 55.7524 44.2131 55.7524 36.5C55.7524 28.787 49.5144 22.5127 41.8462 22.5127Z" fill="white"/>
</g>
<g opacity="0.2">
<path d="M41.8462 49.289C34.8349 49.289 29.1315 43.5523 29.1315 36.5C29.1315 29.4478 34.8349 23.7111 41.8462 23.7111C48.8575 23.7111 54.5609 29.4478 54.5609 36.5C54.5609 43.5523 48.8575 49.289 41.8462 49.289ZM41.8462 24.6151C35.3306 24.6151 30.0273 29.9464 30.0273 36.503C30.0273 43.0597 35.3276 48.3909 41.8462 48.3909C48.3648 48.3909 53.6651 43.0597 53.6651 36.503C53.6651 29.9464 48.3648 24.6151 41.8462 24.6151Z" fill="white"/>
</g>
<g opacity="0.17">
<path d="M41.8462 47.1895C35.9875 47.1895 31.2217 42.3959 31.2217 36.503C31.2217 30.6101 35.9875 25.8165 41.8462 25.8165C47.7049 25.8165 52.4707 30.6101 52.4707 36.503C52.4707 42.3959 47.7049 47.1895 41.8462 47.1895ZM41.8462 26.7146C36.4802 26.7146 32.1176 31.1057 32.1176 36.5C32.1176 41.8943 36.4832 46.2855 41.8462 46.2855C47.2092 46.2855 51.5749 41.8943 51.5749 36.5C51.5749 31.1057 47.2092 26.7146 41.8462 26.7146Z" fill="white"/>
</g>
<g opacity="0.13">
<path d="M41.8462 45.0871C37.1402 45.0871 33.309 41.2335 33.309 36.5C33.309 31.7665 37.1402 27.913 41.8462 27.913C46.5523 27.913 50.3834 31.7665 50.3834 36.5C50.3834 41.2335 46.5523 45.0871 41.8462 45.0871ZM41.8462 28.814C37.6329 28.814 34.2048 32.2621 34.2048 36.5C34.2048 40.738 37.6329 44.186 41.8462 44.186C46.0596 44.186 49.4876 40.738 49.4876 36.5C49.4876 32.2621 46.0596 28.814 41.8462 28.814Z" fill="white"/>
</g>
<g opacity="0.1">
<path d="M41.8462 42.9876C38.2898 42.9876 35.3962 40.0772 35.3962 36.5C35.3962 32.9229 38.2898 30.0125 41.8462 30.0125C45.4026 30.0125 48.2961 32.9229 48.2961 36.5C48.2961 40.0772 45.4026 42.9876 41.8462 42.9876ZM41.8462 30.9135C38.7825 30.9135 36.2921 33.4184 36.2921 36.5C36.2921 39.5816 38.7825 42.0866 41.8462 42.0866C44.9099 42.0866 47.4003 39.5816 47.4003 36.5C47.4003 33.4184 44.9099 30.9135 41.8462 30.9135Z" fill="white"/>
</g>
</g>
<path opacity="0.07" d="M41.8462 10V33.4514C41.0101 33.4514 40.2516 33.7938 39.7022 34.3435L23.219 17.7641C27.9848 12.9675 34.5721 10 41.8462 10Z" fill="white"/>
<path opacity="0.07" d="M41.8462 63V39.5485C42.6823 39.5485 43.4408 39.2061 43.9902 38.6565L60.4763 55.2389C55.7076 60.0355 49.1203 63.003 41.8462 63.003V63Z" fill="white"/>
</g>
<defs>
<clipPath id="clip0_96_5">
<rect width="257" height="53" fill="white" transform="translate(15.5 10)"/>
</clipPath>
</defs>
</svg>
